<svg height="512pt" viewBox="0 -4 512 512" width="512pt" xmlns="http://www.w3.org/2000/svg"><path d="m286.035156 333.703125c-4.347656 0-8.707031-1.527344-12.242187-4.621094l-59.84375-52.378906-106.449219 45.386719c-7.558594 3.308594-16.84375.964844-21.992188-5.605469-5.453124-6.957031-5.242187-16.757813.449219-23.472656l29.085938-38.082031c3.351562-4.386719 9.628906-5.226563 14.015625-1.875 4.390625 3.351562 5.230468 9.628906 1.878906 14.015624l-26.375 34.53125 107.320312-45.761718c3.53125-1.507813 7.617188-.855469 10.507813 1.675781l63.5 55.574219 121.035156-139.015625-115.554687 45.898437c-3.484375 1.382813-7.453125.699219-10.273438-1.769531l-63.609375-55.671875-30.199219 34.480469c-3.640624 4.152343-9.960937 4.570312-14.113281.933593-4.152343-3.636718-4.570312-9.957031-.933593-14.109374l31.175781-35.59375c6.804687-7.652344 18.527343-8.390626 26.175781-1.691407l60.074219 52.578125 115.160156-45.738281c8.035156-3.273437 17.410156-.464844 22.324219 6.6875 4.882812 7.097656 4.183594 16.78125-1.644532 23.113281l-125.695312 144.363282c-.085938.101562-.175781.203124-.269531.300781-3.664063 3.878906-8.574219 5.847656-13.507813 5.847656zm-186.429687-29.988281c-.011719.003906-.023438.011718-.035157.015625zm0 0"/><path d="m151.390625 235.699219c-4.238281 0-8.097656-2.785157-9.460937-6.789063-1.359376-4 .015624-8.570312 3.375-11.144531 3.1875-2.445313 7.617187-2.710937 11.089843-.714844 3.566407 2.046875 5.535157 6.222657 4.863281 10.277344-.785156 4.757813-5.039062 8.371094-9.867187 8.371094zm0 0"/><path d="m107.136719 504.378906c-1.738281 0-3.46875-.449218-5.015625-1.347656-2.824219-1.636719-4.675782-4.550781-4.949219-7.804688l-6.152344-72.433593c-57.90625-45.683594-91.019531-112.210938-91.019531-183.214844 0-64.125 26.71875-124.371094 75.230469-169.644531 48.320312-45.097656 112.519531-69.933594 180.773437-69.933594s132.453125 24.835938 180.769532 69.933594c48.511718 45.273437 75.226562 105.523437 75.226562 169.652344 0 64.121093-26.714844 124.371093-75.226562 169.644531-48.320313 45.097656-112.519532 69.933593-180.769532 69.933593-24.46875 0-48.65625-3.222656-71.964844-9.585937l-72.679687 33.867187c-1.34375.625-2.785156.933594-4.222656.933594zm148.867187-484.378906c-130.132812 0-236.003906 98.503906-236.003906 219.578125 0 66.140625 31.589844 128.117187 86.671875 170.042969 2.246094 1.710937 3.667969 4.292968 3.90625 7.109375l5.308594 62.539062 63.0625-29.382812c2.191406-1.023438 4.671875-1.214844 6.996093-.546875 22.621094 6.519531 46.191407 9.824218 70.058594 9.824218 130.128906 0 235.996094-98.503906 235.996094-219.578124 0-121.082032-105.867188-219.585938-235.996094-219.585938zm0 0"/></svg>